<svg width="172" height="36" viewBox="0 0 172 36" fill="none" xmlns="http://www.w3.org/2000/svg">
<path d="M18.0336 1.10235C18.0336 0.474967 17.5245 -0.0373536 16.8984 0.00214043C14.9185 0.127024 12.9701 0.577937 11.1325 1.3391C8.94452 2.24538 6.9565 3.57372 5.28193 5.2483C3.60735 6.92288 2.279 8.91089 1.37273 11.0988C0.466453 13.2868 -2.07035e-07 15.6318 0 18C2.07036e-07 20.3682 0.466454 22.7132 1.37273 24.9012C2.279 27.0891 3.60735 29.0771 5.28193 30.7517C6.95651 32.4263 8.94452 33.7546 11.1325 34.6609C12.9701 35.4221 14.9185 35.873 16.8984 35.9979C17.5245 36.0374 18.0336 35.525 18.0336 34.8976L18.0336 1.10235Z" fill="url(#paint0_linear_1_56)"/>
<path d="M27.6894 4.79433C27.6894 4.16695 27.1798 3.65348 26.5546 3.70512C23.2417 3.97871 20.1166 5.44357 17.7491 7.85894C15.1127 10.5485 13.6317 14.1964 13.6317 18.0001C13.6317 21.8037 15.1127 25.4516 17.7491 28.1412C20.1166 30.5565 23.2417 32.0214 26.5546 32.295C27.1798 32.3466 27.6894 31.8332 27.6894 31.2058V4.79433Z" fill="url(#paint1_linear_1_56)"/>
<path d="M49.5029 21.7226L47.4837 23.7148V27.4032H43.2838V7.42673H47.4837V18.7342L53.6221 12.9189H58.6296L52.599 19.0573L59.1681 27.4032H54.0797L49.5029 21.7226Z" fill="black"/>
<path d="M75.1256 12.9189V27.4032H71.1141V25.734C70.0731 26.9904 68.5654 27.6186 66.5911 27.6186C65.2271 27.6186 63.9886 27.3135 62.8758 26.7032C61.781 26.093 60.9195 25.2225 60.2913 24.0918C59.6631 22.961 59.349 21.6508 59.349 20.1611C59.349 18.6714 59.6631 17.3611 60.2913 16.2304C60.9195 15.0996 61.781 14.2291 62.8758 13.6189C63.9886 13.0087 65.2271 12.7035 66.5911 12.7035C68.4398 12.7035 69.8847 13.2869 70.9257 14.4535V12.9189H75.1256ZM67.318 24.1725C68.377 24.1725 69.2565 23.8136 69.9564 23.0956C70.6564 22.3597 71.0064 21.3816 71.0064 20.1611C71.0064 18.9406 70.6564 17.9714 69.9564 17.2534C69.2565 16.5176 68.377 16.1496 67.318 16.1496C66.2411 16.1496 65.3527 16.5176 64.6527 17.2534C63.9527 17.9714 63.6027 18.9406 63.6027 20.1611C63.6027 21.3816 63.9527 22.3597 64.6527 23.0956C65.3527 23.8136 66.2411 24.1725 67.318 24.1725Z" fill="black"/>
<path d="M87.8176 12.7035C89.6125 12.7035 91.0573 13.242 92.1522 14.3189C93.265 15.3958 93.8214 16.9932 93.8214 19.1111V27.4032H89.6214V19.7572C89.6214 18.6085 89.3702 17.756 88.8676 17.1996C88.3651 16.6253 87.6382 16.3381 86.6869 16.3381C85.6279 16.3381 84.7844 16.6701 84.1562 17.3342C83.528 17.9803 83.2139 18.9496 83.2139 20.2418V27.4032H79.014V12.9189H83.0254V14.615C83.5818 14.0048 84.2728 13.5381 85.0985 13.2151C85.9241 12.874 86.8305 12.7035 87.8176 12.7035Z" fill="black"/>
<path d="M112.486 12.9189V27.4032H108.474V25.734C107.433 26.9904 105.926 27.6186 103.951 27.6186C102.587 27.6186 101.349 27.3135 100.236 26.7032C99.1412 26.093 98.2797 25.2225 97.6515 24.0918C97.0233 22.961 96.7092 21.6508 96.7092 20.1611C96.7092 18.6714 97.0233 17.3611 97.6515 16.2304C98.2797 15.0996 99.1412 14.2291 100.236 13.6189C101.349 13.0087 102.587 12.7035 103.951 12.7035C105.8 12.7035 107.245 13.2869 108.286 14.4535V12.9189H112.486ZM104.678 24.1725C105.737 24.1725 106.617 23.8136 107.317 23.0956C108.017 22.3597 108.367 21.3816 108.367 20.1611C108.367 18.9406 108.017 17.9714 107.317 17.2534C106.617 16.5176 105.737 16.1496 104.678 16.1496C103.601 16.1496 102.713 16.5176 102.013 17.2534C101.313 17.9714 100.963 18.9406 100.963 20.1611C100.963 21.3816 101.313 22.3597 102.013 23.0956C102.713 23.8136 103.601 24.1725 104.678 24.1725Z" fill="black"/>
<path d="M121.086 27.5378C119.811 27.5378 118.824 27.1789 118.124 26.4609C117.442 25.743 117.101 24.7469 117.101 23.4725V7.42673H119.013V23.311C119.013 24.1546 119.21 24.8007 119.605 25.2494C120 25.6802 120.592 25.8956 121.382 25.8956C121.884 25.8956 122.315 25.8148 122.674 25.6533L122.809 27.2417C122.252 27.4391 121.678 27.5378 121.086 27.5378Z" fill="black"/>
<path d="M138.069 13.242V27.4032H136.238V24.6033C135.664 25.5545 134.901 26.2815 133.95 26.784C133.017 27.2866 131.958 27.5378 130.773 27.5378C129.445 27.5378 128.242 27.2327 127.166 26.6225C126.089 26.0122 125.245 25.1597 124.635 24.0648C124.025 22.97 123.719 21.7226 123.719 20.3226C123.719 18.9226 124.025 17.6752 124.635 16.5804C125.245 15.4855 126.089 14.642 127.166 14.0497C128.242 13.4394 129.445 13.1343 130.773 13.1343C131.922 13.1343 132.954 13.3766 133.869 13.8612C134.803 14.3279 135.565 15.0189 136.158 15.9342V13.242H138.069ZM130.935 25.8417C131.922 25.8417 132.81 25.6174 133.6 25.1687C134.408 24.702 135.036 24.0469 135.485 23.2033C135.951 22.3597 136.185 21.3995 136.185 20.3226C136.185 19.2457 135.951 18.2855 135.485 17.4419C135.036 16.5983 134.408 15.9522 133.6 15.5035C132.81 15.0368 131.922 14.8035 130.935 14.8035C129.93 14.8035 129.023 15.0368 128.215 15.5035C127.426 15.9522 126.798 16.5983 126.331 17.4419C125.882 18.2855 125.658 19.2457 125.658 20.3226C125.658 21.3995 125.882 22.3597 126.331 23.2033C126.798 24.0469 127.426 24.702 128.215 25.1687C129.023 25.6174 129.93 25.8417 130.935 25.8417Z" fill="black"/>
<path d="M150.689 13.1343C152.017 13.1343 153.219 13.4394 154.296 14.0497C155.373 14.642 156.217 15.4855 156.827 16.5804C157.437 17.6752 157.742 18.9226 157.742 20.3226C157.742 21.7226 157.437 22.97 156.827 24.0648C156.217 25.1597 155.373 26.0122 154.296 26.6225C153.219 27.2327 152.017 27.5378 150.689 27.5378C149.504 27.5378 148.436 27.2866 147.485 26.784C146.552 26.2815 145.798 25.5545 145.223 24.6033V27.4032H143.393V7.42673H145.304V15.9342C145.896 15.0189 146.65 14.3279 147.566 13.8612C148.499 13.3766 149.54 13.1343 150.689 13.1343ZM150.554 25.8417C151.541 25.8417 152.439 25.6174 153.246 25.1687C154.054 24.702 154.682 24.0469 155.131 23.2033C155.597 22.3597 155.831 21.3995 155.831 20.3226C155.831 19.2457 155.597 18.2855 155.131 17.4419C154.682 16.5983 154.054 15.9522 153.246 15.5035C152.439 15.0368 151.541 14.8035 150.554 14.8035C149.549 14.8035 148.643 15.0368 147.835 15.5035C147.045 15.9522 146.417 16.5983 145.95 17.4419C145.502 18.2855 145.277 19.2457 145.277 20.3226C145.277 21.3995 145.502 22.3597 145.95 23.2033C146.417 24.0469 147.045 24.702 147.835 25.1687C148.643 25.6174 149.549 25.8417 150.554 25.8417Z" fill="black"/>
<path d="M165.435 27.5378C164.286 27.5378 163.182 27.3763 162.124 27.0532C161.083 26.7122 160.266 26.2904 159.674 25.7879L160.535 24.2802C161.127 24.7469 161.872 25.1328 162.77 25.4379C163.667 25.7251 164.6 25.8686 165.57 25.8686C166.862 25.8686 167.813 25.6712 168.423 25.2764C169.052 24.8635 169.366 24.2892 169.366 23.5533C169.366 23.0328 169.195 22.629 168.854 22.3418C168.513 22.0367 168.082 21.8123 167.562 21.6687C167.041 21.5072 166.35 21.3546 165.489 21.2111C164.34 20.9957 163.416 20.7803 162.716 20.5649C162.016 20.3316 161.415 19.9457 160.912 19.4072C160.427 18.8688 160.185 18.1239 160.185 17.1727C160.185 15.9881 160.679 15.0189 161.666 14.265C162.653 13.5112 164.026 13.1343 165.785 13.1343C166.7 13.1343 167.616 13.2599 168.531 13.5112C169.446 13.7445 170.2 14.0586 170.793 14.4535L169.958 15.9881C168.791 15.1804 167.4 14.7766 165.785 14.7766C164.565 14.7766 163.64 14.992 163.012 15.4227C162.402 15.8535 162.097 16.4188 162.097 17.1188C162.097 17.6573 162.267 18.088 162.608 18.4111C162.967 18.7342 163.407 18.9765 163.927 19.138C164.448 19.2816 165.166 19.4342 166.081 19.5957C167.212 19.8111 168.118 20.0265 168.8 20.2418C169.482 20.4572 170.066 20.8252 170.55 21.3457C171.035 21.8662 171.277 22.5841 171.277 23.4995C171.277 24.7379 170.757 25.7251 169.716 26.4609C168.693 27.1789 167.266 27.5378 165.435 27.5378Z" fill="black"/>
<defs>
<linearGradient id="paint0_linear_1_56" x1="-0.218683" y1="39.8235" x2="28.0042" y2="-4.54021" gradientUnits="userSpaceOnUse">
<stop stop-color="#0194FF"/>
<stop offset="1" stop-color="#1FF8D1"/>
</linearGradient>
<linearGradient id="paint1_linear_1_56" x1="13.4612" y1="35.3358" x2="36.0569" y2="0.480814" gradientUnits="userSpaceOnUse">
<stop stop-color="#0194FF"/>
<stop offset="1" stop-color="#1FF8D1"/>
</linearGradient>
</defs>
</svg>

